<?xml-stylesheet href="https://cdnjs.cloudflare.com/ajax/libs/font-awesome/6.6.0/css/all.min.css" type="text/css"?><svg xmlns="http://www.w3.org/2000/svg" xmlns:xlink="http://www.w3.org/1999/xlink" style="max-width:100%" id="graph-div" width="100%" height="100%" aria-roledescription="flowchart-v2" class="flowchart" role="graphics-document document" viewBox="0 0 1035.15 1392.963"><style>#graph-div{font-family:&quot;trebuchet ms&quot;,verdana,arial,sans-serif;font-size:16px;fill:#333}#graph-div .edge-thickness-normal{stroke-width:1px}#graph-div .edge-pattern-solid{stroke-dasharray:0}#graph-div .marker{fill:#333;stroke:#333}#graph-div .marker.cross{stroke:#333}#graph-div .label,#graph-div svg{font-family:&quot;trebuchet ms&quot;,verdana,arial,sans-serif}#graph-div svg{font-size:16px}#graph-div p{margin:0}#graph-div .label{color:#333}#graph-div span{fill:#333;color:#333}#graph-div .node circle,#graph-div .node path,#graph-div .node polygon,#graph-div .node rect{fill:#ececff;stroke:#9370db;stroke-width:1px}#graph-div .flowchart-link{stroke:#333;fill:none}#graph-div .edgeLabel,#graph-div .node .label{text-align:center}#graph-div .edgeLabel,#graph-div .edgeLabel p,#graph-div .edgeLabel rect{background-color:rgba(232,232,232,.8)}#graph-div .edgeLabel rect{opacity:.5;fill:rgba(232,232,232,.8)}#graph-div .labelBkg{background-color:rgba(232,232,232,.5)}#graph-div :root{--mermaid-font-family:&quot;trebuchet ms&quot;,verdana,arial,sans-serif}</style><g><marker id="graph-div_flowchart-v2-pointEnd" class="marker flowchart-v2" markerHeight="8" markerUnits="userSpaceOnUse" markerWidth="8" orient="auto" refX="5" refY="5" viewBox="0 0 10 10"><path style="stroke-width:1;stroke-dasharray:1,0" d="M 0 0 L 10 5 L 0 10 z" class="arrowMarkerPath"/></marker><marker id="graph-div_flowchart-v2-pointStart" class="marker flowchart-v2" markerHeight="8" markerUnits="userSpaceOnUse" markerWidth="8" orient="auto" refX="4.5" refY="5" viewBox="0 0 10 10"><path style="stroke-width:1;stroke-dasharray:1,0" d="M 0 5 L 10 10 L 10 0 z" class="arrowMarkerPath"/></marker><marker id="graph-div_flowchart-v2-circleEnd" class="marker flowchart-v2" markerHeight="11" markerUnits="userSpaceOnUse" markerWidth="11" orient="auto" refX="11" refY="5" viewBox="0 0 10 10"><circle style="stroke-width:1;stroke-dasharray:1,0" cx="5" cy="5" r="5" class="arrowMarkerPath"/></marker><marker id="graph-div_flowchart-v2-circleStart" class="marker flowchart-v2" markerHeight="11" markerUnits="userSpaceOnUse" markerWidth="11" orient="auto" refX="-1" refY="5" viewBox="0 0 10 10"><circle style="stroke-width:1;stroke-dasharray:1,0" cx="5" cy="5" r="5" class="arrowMarkerPath"/></marker><marker id="graph-div_flowchart-v2-crossEnd" class="marker cross flowchart-v2" markerHeight="11" markerUnits="userSpaceOnUse" markerWidth="11" orient="auto" refX="12" refY="5.2" viewBox="0 0 11 11"><path style="stroke-width:2;stroke-dasharray:1,0" d="M 1,1 l 9,9 M 10,1 l -9,9" class="arrowMarkerPath"/></marker><marker id="graph-div_flowchart-v2-crossStart" class="marker cross flowchart-v2" markerHeight="11" markerUnits="userSpaceOnUse" markerWidth="11" orient="auto" refX="-1" refY="5.2" viewBox="0 0 11 11"><path style="stroke-width:2;stroke-dasharray:1,0" d="M 1,1 l 9,9 M 10,1 l -9,9" class="arrowMarkerPath"/></marker><g class="root"><g class="edgePaths"><path id="L_A_B_0" marker-end="url(#graph-div_flowchart-v2-pointEnd)" d="M501.406,62L501.406,66.167C501.406,70.333,501.406,78.667,501.406,84.917C501.406,91.167,501.406,95.333,501.406,98.833C501.406,102.333,501.406,105.167,501.406,106.583L501.406,108" class="edge-thickness-normal edge-pattern-solid flowchart-link"/><path id="L_B_C_1" marker-end="url(#graph-div_flowchart-v2-pointEnd)" d="M501.406,166L501.406,170.167C501.406,174.333,501.406,182.667,501.448,188.958C501.49,195.25,501.573,199.5,501.643,203.083C501.713,206.667,501.771,209.584,501.799,211.042L501.828,212.501" class="edge-thickness-normal edge-pattern-solid flowchart-link"/><path id="L_C_D_2" marker-end="url(#graph-div_flowchart-v2-pointEnd)" d="M544.137,362.619L554.79,375.741C565.443,388.863,586.748,415.106,597.442,431.353C608.136,447.6,608.22,453.85,608.294,459.433C608.369,465.017,608.434,469.934,608.467,472.392L608.5,474.85" class="edge-thickness-normal edge-pattern-solid flowchart-link"/><path id="L_C_E_3" marker-end="url(#graph-div_flowchart-v2-pointEnd)" d="M429.858,332.802L370.595,350.893C311.332,368.985,192.807,405.167,133.544,443.466C74.281,481.765,74.281,522.179,74.281,562.594C74.281,603.008,74.281,643.423,74.281,684.931C74.281,726.44,74.281,769.042,74.281,811.644C74.281,854.246,74.281,896.848,74.281,939.025C74.281,981.202,74.281,1022.954,74.281,1064.706C74.281,1106.458,74.281,1148.21,74.281,1172.17C74.281,1196.129,74.281,1202.296,74.281,1207.796C74.281,1213.296,74.281,1218.129,74.281,1220.546L74.281,1222.963" class="edge-thickness-normal edge-pattern-solid flowchart-link"/><path id="L_D_F_4" marker-end="url(#graph-div_flowchart-v2-pointEnd)" d="M649.266,606.625L661.296,619.494C673.326,632.362,697.387,658.1,709.458,674.094C721.53,690.088,721.614,696.338,721.688,701.921C721.762,707.504,721.828,712.421,721.861,714.879L721.894,717.338" class="edge-thickness-normal edge-pattern-solid flowchart-link"/><path id="L_D_G_5" marker-end="url(#graph-div_flowchart-v2-pointEnd)" d="M547.433,586.217L504.123,602.487C460.813,618.757,374.194,651.297,330.885,688.868C287.575,726.44,287.575,769.042,287.575,811.644C287.575,854.246,287.575,896.848,287.575,939.025C287.575,981.202,287.575,1022.954,287.575,1064.706C287.575,1106.458,287.575,1148.21,287.575,1172.17C287.575,1196.129,287.575,1202.296,287.575,1207.796C287.575,1213.296,287.575,1218.129,287.575,1220.546L287.575,1222.963" class="edge-thickness-normal edge-pattern-solid flowchart-link"/><path id="L_F_H_6" marker-end="url(#graph-div_flowchart-v2-pointEnd)" d="M761.545,863.352L771.334,876.035C781.123,888.718,800.701,914.084,810.531,929.892C820.361,945.7,820.445,951.95,820.519,957.533C820.594,963.117,820.659,968.034,820.692,970.492L820.725,972.95" class="edge-thickness-normal edge-pattern-solid flowchart-link"/><path id="L_F_I_7" marker-end="url(#graph-div_flowchart-v2-pointEnd)" d="M665.796,846.799L640.557,862.241C615.318,877.682,564.84,908.566,539.601,944.884C514.363,981.202,514.363,1022.954,514.363,1064.706C514.363,1106.458,514.363,1148.21,514.363,1172.17C514.363,1196.129,514.363,1202.296,514.363,1207.796C514.363,1213.296,514.363,1218.129,514.363,1220.546L514.363,1222.963" class="edge-thickness-normal edge-pattern-solid flowchart-link"/><path id="L_H_J_8" marker-end="url(#graph-div_flowchart-v2-pointEnd)" d="M779.863,1112.548L768.557,1125.45C757.25,1138.353,734.638,1164.158,723.331,1180.143C712.025,1196.129,712.025,1202.296,712.025,1207.796C712.025,1213.296,712.025,1218.129,712.025,1220.546L712.025,1222.963" class="edge-thickness-normal edge-pattern-solid flowchart-link"/><path id="L_H_K_9" marker-end="url(#graph-div_flowchart-v2-pointEnd)" d="M861.693,1112.548L872.833,1125.45C883.972,1138.353,906.252,1164.158,917.392,1180.143C928.531,1196.129,928.531,1202.296,928.531,1207.796C928.531,1213.296,928.531,1218.129,928.531,1220.546L928.531,1222.963" class="edge-thickness-normal edge-pattern-solid flowchart-link"/><path id="L_E_L_10" marker-end="url(#graph-div_flowchart-v2-pointEnd)" d="M74.281,1280.963L74.281,1285.129C74.281,1289.296,74.281,1297.629,107.361,1305.705C140.442,1313.78,206.602,1321.598,272.1,1329.337C337.599,1337.076,402.435,1344.737,434.853,1348.568L467.271,1352.398" class="edge-thickness-normal edge-pattern-solid flowchart-link"/><path id="L_G_L_11" marker-end="url(#graph-div_flowchart-v2-pointEnd)" d="M287.575,1280.963L287.575,1285.129C287.575,1289.296,287.575,1297.629,302.881,1305.305C318.186,1312.981,348.798,1320,378.76,1326.87C408.721,1333.74,438.033,1340.461,452.689,1343.821L467.345,1347.182" class="edge-thickness-normal edge-pattern-solid flowchart-link"/><path id="L_I_L_12" marker-end="url(#graph-div_flowchart-v2-pointEnd)" d="M514.363,1280.963L514.363,1285.129C514.363,1289.296,514.363,1297.629,514.363,1303.879C514.363,1310.129,514.363,1314.296,514.363,1317.796C514.363,1321.296,514.363,1324.129,514.363,1325.546L514.363,1326.963" class="edge-thickness-normal edge-pattern-solid flowchart-link"/><path id="L_J_L_13" marker-end="url(#graph-div_flowchart-v2-pointEnd)" d="M712.025,1280.963L712.025,1285.129C712.025,1289.296,712.025,1297.629,699.146,1305.184C686.268,1312.739,660.51,1319.515,635.398,1326.121C610.285,1332.728,585.817,1339.165,573.584,1342.383L561.35,1345.601" class="edge-thickness-normal edge-pattern-solid flowchart-link"/><path id="L_K_L_14" marker-end="url(#graph-div_flowchart-v2-pointEnd)" d="M928.531,1280.963L928.531,1285.129C928.531,1289.296,928.531,1297.629,897.61,1305.678C866.69,1313.727,804.848,1321.491,743.668,1329.173C682.488,1336.854,621.969,1344.452,591.709,1348.251L561.45,1352.051" class="edge-thickness-normal edge-pattern-solid flowchart-link"/></g><g class="edgeLabels"><g class="edgeLabel"><g class="label" transform="translate(0, 0)"><foreignObject width="0" height="0"><div xmlns="http://www.w3.org/1999/xhtml" style="display:table-cell;white-space:nowrap;line-height:1.5;max-width:200px;text-align:center" class="labelBkg"><span class="edgeLabel"/></div></foreignObject></g></g><g class="edgeLabel"><g class="label" transform="translate(0, 0)"><foreignObject width="0" height="0"><div xmlns="http://www.w3.org/1999/xhtml" style="display:table-cell;white-space:nowrap;line-height:1.5;max-width:200px;text-align:center" class="labelBkg"><span class="edgeLabel"/></div></foreignObject></g></g><g class="edgeLabel"><g class="label" transform="translate(608.0531311035156, 441.3500061035156) translate(-31.087499618530273, -12)"><foreignObject width="62.175" height="24"><div xmlns="http://www.w3.org/1999/xhtml" style="display:table-cell;white-space:nowrap;line-height:1.5;max-width:200px;text-align:center" class="labelBkg"><span class="edgeLabel"><p>Relevant</p></span></div></foreignObject></g></g><g class="edgeLabel"><g class="label" transform="translate(74.28125, 811.6437606811523) translate(-46.0625, -12)"><foreignObject width="92.125" height="24"><div xmlns="http://www.w3.org/1999/xhtml" style="display:table-cell;white-space:nowrap;line-height:1.5;max-width:200px;text-align:center" class="labelBkg"><span class="edgeLabel"><p>Not Relevant</p></span></div></foreignObject></g></g><g class="edgeLabel"><g class="label" transform="translate(721.4468841552734, 683.8375091552734) translate(-54.181251525878906, -12)"><foreignObject width="108.363" height="24"><div xmlns="http://www.w3.org/1999/xhtml" style="display:table-cell;white-space:nowrap;line-height:1.5;max-width:200px;text-align:center" class="labelBkg"><span class="edgeLabel"><p>Good Grammar</p></span></div></foreignObject></g></g><g class="edgeLabel"><g class="label" transform="translate(287.5750045776367, 939.4500122070312) translate(-51.51250076293945, -12)"><foreignObject width="103.025" height="24"><div xmlns="http://www.w3.org/1999/xhtml" style="display:table-cell;white-space:nowrap;line-height:1.5;max-width:200px;text-align:center" class="labelBkg"><span class="edgeLabel"><p>Poor Grammar</p></span></div></foreignObject></g></g><g class="edgeLabel"><g class="label" transform="translate(820.278133392334, 939.4500122070312) translate(-54.34375, -12)"><foreignObject width="108.688" height="24"><div xmlns="http://www.w3.org/1999/xhtml" style="display:table-cell;white-space:nowrap;line-height:1.5;max-width:200px;text-align:center" class="labelBkg"><span class="edgeLabel"><p>Good Structure</p></span></div></foreignObject></g></g><g class="edgeLabel"><g class="label" transform="translate(514.3625106811523, 1064.7062606811523) translate(-51.66875076293945, -12)"><foreignObject width="103.338" height="24"><div xmlns="http://www.w3.org/1999/xhtml" style="display:table-cell;white-space:nowrap;line-height:1.5;max-width:200px;text-align:center" class="labelBkg"><span class="edgeLabel"><p>Poor Structure</p></span></div></foreignObject></g></g><g class="edgeLabel"><g class="label" transform="translate(712.0250091552734, 1189.9625091552734) translate(-48.41875076293945, -12)"><foreignObject width="96.838" height="24"><div xmlns="http://www.w3.org/1999/xhtml" style="display:table-cell;white-space:nowrap;line-height:1.5;max-width:200px;text-align:center" class="labelBkg"><span class="edgeLabel"><p>Deep Analysis</p></span></div></foreignObject></g></g><g class="edgeLabel"><g class="label" transform="translate(928.5312576293945, 1189.9625091552734) translate(-57.712501525878906, -12)"><foreignObject width="115.425" height="24"><div xmlns="http://www.w3.org/1999/xhtml" style="display:table-cell;white-space:nowrap;line-height:1.5;max-width:200px;text-align:center" class="labelBkg"><span class="edgeLabel"><p>Shallow Analysis</p></span></div></foreignObject></g></g><g class="edgeLabel"><g class="label" transform="translate(0, 0)"><foreignObject width="0" height="0"><div xmlns="http://www.w3.org/1999/xhtml" style="display:table-cell;white-space:nowrap;line-height:1.5;max-width:200px;text-align:center" class="labelBkg"><span class="edgeLabel"/></div></foreignObject></g></g><g class="edgeLabel"><g class="label" transform="translate(0, 0)"><foreignObject width="0" height="0"><div xmlns="http://www.w3.org/1999/xhtml" style="display:table-cell;white-space:nowrap;line-height:1.5;max-width:200px;text-align:center" class="labelBkg"><span class="edgeLabel"/></div></foreignObject></g></g><g class="edgeLabel"><g class="label" transform="translate(0, 0)"><foreignObject width="0" height="0"><div xmlns="http://www.w3.org/1999/xhtml" style="display:table-cell;white-space:nowrap;line-height:1.5;max-width:200px;text-align:center" class="labelBkg"><span class="edgeLabel"/></div></foreignObject></g></g><g class="edgeLabel"><g class="label" transform="translate(0, 0)"><foreignObject width="0" height="0"><div xmlns="http://www.w3.org/1999/xhtml" style="display:table-cell;white-space:nowrap;line-height:1.5;max-width:200px;text-align:center" class="labelBkg"><span class="edgeLabel"/></div></foreignObject></g></g><g class="edgeLabel"><g class="label" transform="translate(0, 0)"><foreignObject width="0" height="0"><div xmlns="http://www.w3.org/1999/xhtml" style="display:table-cell;white-space:nowrap;line-height:1.5;max-width:200px;text-align:center" class="labelBkg"><span class="edgeLabel"/></div></foreignObject></g></g></g><g class="nodes"><g id="flowchart-A-248" class="node default" transform="translate(501.40625381469727, 35)"><rect width="95.013" height="54" x="-47.506" y="-27" class="basic label-container" data-et="node" data-id="abc"/><g class="label" transform="translate(-17.506250381469727, -12)"><rect/><foreignObject width="35.013" height="24"><div xmlns="http://www.w3.org/1999/xhtml" style="display:table-cell;white-space:nowrap;line-height:1.5;max-width:200px;text-align:center"><span class="nodeLabel"><p>Start</p></span></div></foreignObject></g></g><g id="flowchart-B-249" class="node default" transform="translate(501.40625381469727, 139)"><rect width="140.65" height="54" x="-70.325" y="-27" class="basic label-container" data-et="node" data-id="abc"/><g class="label" transform="translate(-40.32500076293945, -12)"><rect/><foreignObject width="80.65" height="24"><div xmlns="http://www.w3.org/1999/xhtml" style="display:table-cell;white-space:nowrap;line-height:1.5;max-width:200px;text-align:center"><span class="nodeLabel"><p>Parse Essay</p></span></div></foreignObject></g></g><g id="flowchart-C-251" class="node default" transform="translate(501.40625381469727, 310.1750030517578)"><polygon points="94.175 0 188.35 -94.175 94.175 -188.35 0 -94.175" class="label-container" transform="translate(-94.17500305175781,94.17500305175781)"/><g class="label" transform="translate(-67.17500305175781, -12)"><rect/><foreignObject width="134.35" height="24"><div xmlns="http://www.w3.org/1999/xhtml" style="display:table-cell;white-space:nowrap;line-height:1.5;max-width:200px;text-align:center"><span class="nodeLabel"><p>Content Relevance</p></span></div></foreignObject></g></g><g id="flowchart-D-253" class="node default" transform="translate(608.0531311035156, 562.5937576293945)"><polygon points="84.244 0 168.488 -84.244 84.244 -168.488 0 -84.244" class="label-container" transform="translate(-84.2437515258789,84.2437515258789)"/><g class="label" transform="translate(-57.243751525878906, -12)"><rect/><foreignObject width="114.488" height="24"><div xmlns="http://www.w3.org/1999/xhtml" style="display:table-cell;white-space:nowrap;line-height:1.5;max-width:200px;text-align:center"><span class="nodeLabel"><p>Grammar Check</p></span></div></foreignObject></g></g><g id="flowchart-E-255" class="node default" transform="translate(74.28125, 1253.9625091552734)"><rect width="132.563" height="54" x="-66.281" y="-27" class="basic label-container" data-et="node" data-id="abc"/><g class="label" transform="translate(-36.28125, -12)"><rect/><foreignObject width="72.563" height="24"><div xmlns="http://www.w3.org/1999/xhtml" style="display:table-cell;white-space:nowrap;line-height:1.5;max-width:200px;text-align:center"><span class="nodeLabel"><p>Low Score</p></span></div></foreignObject></g></g><g id="flowchart-F-257" class="node default" transform="translate(721.4468841552734, 811.6437606811523)"><polygon points="90.806 0 181.613 -90.806 90.806 -181.613 0 -90.806" class="label-container" transform="translate(-90.8062515258789,90.8062515258789)"/><g class="label" transform="translate(-63.806251525878906, -12)"><rect/><foreignObject width="127.613" height="24"><div xmlns="http://www.w3.org/1999/xhtml" style="display:table-cell;white-space:nowrap;line-height:1.5;max-width:200px;text-align:center"><span class="nodeLabel"><p>Structure Analysis</p></span></div></foreignObject></g></g><g id="flowchart-G-259" class="node default" transform="translate(287.5750045776367, 1253.9625091552734)"><rect width="194.025" height="54" x="-97.013" y="-27" class="basic label-container" data-et="node" data-id="abc"/><g class="label" transform="translate(-67.01250457763672, -12)"><rect/><foreignObject width="134.025" height="24"><div xmlns="http://www.w3.org/1999/xhtml" style="display:table-cell;white-space:nowrap;line-height:1.5;max-width:200px;text-align:center"><span class="nodeLabel"><p>Medium-Low Score</p></span></div></foreignObject></g></g><g id="flowchart-H-261" class="node default" transform="translate(820.278133392334, 1064.7062606811523)"><polygon points="88.256 0 176.513 -88.256 88.256 -176.513 0 -88.256" class="label-container" transform="translate(-88.25625228881836,88.25625228881836)"/><g class="label" transform="translate(-61.25625228881836, -12)"><rect/><foreignObject width="122.513" height="24"><div xmlns="http://www.w3.org/1999/xhtml" style="display:table-cell;white-space:nowrap;line-height:1.5;max-width:200px;text-align:center"><span class="nodeLabel"><p>Depth of Analysis</p></span></div></foreignObject></g></g><g id="flowchart-I-263" class="node default" transform="translate(514.3625106811523, 1253.9625091552734)"><rect width="159.55" height="54" x="-79.775" y="-27" class="basic label-container" data-et="node" data-id="abc"/><g class="label" transform="translate(-49.775001525878906, -12)"><rect/><foreignObject width="99.55" height="24"><div xmlns="http://www.w3.org/1999/xhtml" style="display:table-cell;white-space:nowrap;line-height:1.5;max-width:200px;text-align:center"><span class="nodeLabel"><p>Medium Score</p></span></div></foreignObject></g></g><g id="flowchart-J-265" class="node default" transform="translate(712.0250091552734, 1253.9625091552734)"><rect width="135.775" height="54" x="-67.888" y="-27" class="basic label-container" data-et="node" data-id="abc"/><g class="label" transform="translate(-37.88750076293945, -12)"><rect/><foreignObject width="75.775" height="24"><div xmlns="http://www.w3.org/1999/xhtml" style="display:table-cell;white-space:nowrap;line-height:1.5;max-width:200px;text-align:center"><span class="nodeLabel"><p>High Score</p></span></div></foreignObject></g></g><g id="flowchart-K-267" class="node default" transform="translate(928.5312576293945, 1253.9625091552734)"><rect width="197.238" height="54" x="-98.619" y="-27" class="basic label-container" data-et="node" data-id="abc"/><g class="label" transform="translate(-68.6187515258789, -12)"><rect/><foreignObject width="137.238" height="24"><div xmlns="http://www.w3.org/1999/xhtml" style="display:table-cell;white-space:nowrap;line-height:1.5;max-width:200px;text-align:center"><span class="nodeLabel"><p>Medium-High Score</p></span></div></foreignObject></g></g><g id="flowchart-L-269" class="node default" transform="translate(514.3625106811523, 1357.9625091552734)"><rect width="86.238" height="54" x="-43.119" y="-27" class="basic label-container" data-et="node" data-id="abc"/><g class="label" transform="translate(-13.11875057220459, -12)"><rect/><foreignObject width="26.238" height="24"><div xmlns="http://www.w3.org/1999/xhtml" style="display:table-cell;white-space:nowrap;line-height:1.5;max-width:200px;text-align:center"><span class="nodeLabel"><p>End</p></span></div></foreignObject></g></g></g></g></g></svg>