<?xml-stylesheet href="https://cdnjs.cloudflare.com/ajax/libs/font-awesome/6.6.0/css/all.min.css" type="text/css"?><svg xmlns="http://www.w3.org/2000/svg" xmlns:xlink="http://www.w3.org/1999/xlink" style="max-width:100%" id="graph-div" width="100%" height="100%" aria-roledescription="flowchart-v2" class="flowchart" role="graphics-document document" viewBox="0 0 381.45 866.15"><style>#graph-div{font-family:&quot;trebuchet ms&quot;,verdana,arial,sans-serif;font-size:16px;fill:#333}#graph-div .edge-thickness-normal{stroke-width:1px}#graph-div .edge-pattern-solid{stroke-dasharray:0}#graph-div .edge-pattern-dotted{stroke-dasharray:2}#graph-div .marker{fill:#333;stroke:#333}#graph-div .marker.cross{stroke:#333}#graph-div .label,#graph-div svg{font-family:&quot;trebuchet ms&quot;,verdana,arial,sans-serif}#graph-div svg{font-size:16px}#graph-div p{margin:0}#graph-div .label{color:#333}#graph-div span{fill:#333;color:#333}#graph-div .node circle,#graph-div .node path,#graph-div .node rect{fill:#ececff;stroke:#9370db;stroke-width:1px}#graph-div .flowchart-link{stroke:#333;fill:none}#graph-div .edgeLabel,#graph-div .node .label{text-align:center}#graph-div .edgeLabel,#graph-div .edgeLabel p,#graph-div .edgeLabel rect{background-color:rgba(232,232,232,.8)}#graph-div .edgeLabel rect{opacity:.5;fill:rgba(232,232,232,.8)}#graph-div .labelBkg{background-color:rgba(232,232,232,.5)}#graph-div :root{--mermaid-font-family:&quot;trebuchet ms&quot;,verdana,arial,sans-serif}</style><g><marker id="graph-div_flowchart-v2-pointEnd" class="marker flowchart-v2" markerHeight="8" markerUnits="userSpaceOnUse" markerWidth="8" orient="auto" refX="5" refY="5" viewBox="0 0 10 10"><path style="stroke-width:1;stroke-dasharray:1,0" d="M 0 0 L 10 5 L 0 10 z" class="arrowMarkerPath"/></marker><marker id="graph-div_flowchart-v2-pointStart" class="marker flowchart-v2" markerHeight="8" markerUnits="userSpaceOnUse" markerWidth="8" orient="auto" refX="4.5" refY="5" viewBox="0 0 10 10"><path style="stroke-width:1;stroke-dasharray:1,0" d="M 0 5 L 10 10 L 10 0 z" class="arrowMarkerPath"/></marker><marker id="graph-div_flowchart-v2-circleEnd" class="marker flowchart-v2" markerHeight="11" markerUnits="userSpaceOnUse" markerWidth="11" orient="auto" refX="11" refY="5" viewBox="0 0 10 10"><circle style="stroke-width:1;stroke-dasharray:1,0" cx="5" cy="5" r="5" class="arrowMarkerPath"/></marker><marker id="graph-div_flowchart-v2-circleStart" class="marker flowchart-v2" markerHeight="11" markerUnits="userSpaceOnUse" markerWidth="11" orient="auto" refX="-1" refY="5" viewBox="0 0 10 10"><circle style="stroke-width:1;stroke-dasharray:1,0" cx="5" cy="5" r="5" class="arrowMarkerPath"/></marker><marker id="graph-div_flowchart-v2-crossEnd" class="marker cross flowchart-v2" markerHeight="11" markerUnits="userSpaceOnUse" markerWidth="11" orient="auto" refX="12" refY="5.2" viewBox="0 0 11 11"><path style="stroke-width:2;stroke-dasharray:1,0" d="M 1,1 l 9,9 M 10,1 l -9,9" class="arrowMarkerPath"/></marker><marker id="graph-div_flowchart-v2-crossStart" class="marker cross flowchart-v2" markerHeight="11" markerUnits="userSpaceOnUse" markerWidth="11" orient="auto" refX="-1" refY="5.2" viewBox="0 0 11 11"><path style="stroke-width:2;stroke-dasharray:1,0" d="M 1,1 l 9,9 M 10,1 l -9,9" class="arrowMarkerPath"/></marker><g class="root"><g class="edgePaths"><path id="L_start_static_test_0" marker-end="url(#graph-div_flowchart-v2-pointEnd)" d="M242.391,47L242.391,51.167C242.391,55.333,242.391,63.667,242.391,71.333C242.391,79,242.391,86,242.391,89.5L242.391,93" class="edge-thickness-normal edge-pattern-solid flowchart-link"/><path id="L_static_test_generate_node_descriptions_1" marker-end="url(#graph-div_flowchart-v2-pointEnd)" d="M242.391,151L242.391,155.167C242.391,159.333,242.391,167.667,242.391,175.333C242.391,183,242.391,190,242.391,193.5L242.391,197" class="edge-thickness-normal edge-pattern-solid flowchart-link"/><path id="L_generate_node_descriptions_generate_testers_2" marker-end="url(#graph-div_flowchart-v2-pointEnd)" d="M242.391,255L242.391,259.167C242.391,263.333,242.391,271.667,242.391,279.333C242.391,287,242.391,294,242.391,297.5L242.391,301" class="edge-thickness-normal edge-pattern-solid flowchart-link"/><path id="L_generate_testers_generate_test_cases_3" marker-end="url(#graph-div_flowchart-v2-pointEnd)" d="M242.391,359L242.391,363.167C242.391,367.333,242.391,375.667,242.391,383.333C242.391,391,242.391,398,242.391,401.5L242.391,405" class="edge-thickness-normal edge-pattern-solid flowchart-link"/><path id="L_generate_test_cases_run_test_cases_4" marker-end="url(#graph-div_flowchart-v2-pointEnd)" d="M164.109,463L152.028,467.167C139.948,471.333,115.786,479.667,103.706,487.333C91.625,495,91.625,502,91.625,505.5L91.625,509" class="edge-thickness-normal edge-pattern-dotted edge-pattern-solid flowchart-link"/><path id="generate_test_cases-cyclic-special-1" d="M233.292,463L231.888,467.167C230.483,471.333,227.675,479.667,226.271,492.492C224.866,505.317,224.866,522.633,224.866,531.292L224.866,539.95" class="edge-thickness-normal edge-pattern-dotted edge-pattern-solid flowchart-link"/><path id="generate_test_cases-cyclic-special-mid" d="M224.866,540.05L224.866,548.708C224.866,557.367,224.866,574.683,230.702,592C236.539,609.317,248.211,626.633,254.047,635.292L259.883,643.95" class="edge-thickness-normal edge-pattern-dotted edge-pattern-solid flowchart-link"/><path id="generate_test_cases-cyclic-special-2" marker-end="url(#graph-div_flowchart-v2-pointEnd)" d="M259.916,643.95L259.916,635.292C259.916,626.633,259.916,609.317,259.916,591.992C259.916,574.667,259.916,557.333,259.916,540C259.916,522.667,259.916,505.333,258.725,493.132C257.534,480.93,255.151,473.86,253.96,470.325L252.768,466.791" class="edge-thickness-normal edge-pattern-dotted edge-pattern-solid flowchart-link"/><path id="L_run_test_cases_analize_results_6" marker-end="url(#graph-div_flowchart-v2-pointEnd)" d="M91.625,567L91.625,571.167C91.625,575.333,91.625,583.667,91.625,591.333C91.625,599,91.625,606,91.625,609.5L91.625,613" class="edge-thickness-normal edge-pattern-solid flowchart-link"/><path id="analize_results-cyclic-special-1" d="M107.484,671L111.106,677.167C114.728,683.333,121.972,695.667,125.594,711.242C129.216,726.817,129.216,745.633,129.216,755.042L129.216,764.45" class="edge-thickness-normal edge-pattern-dotted edge-pattern-solid flowchart-link"/><path id="analize_results-cyclic-special-mid" d="M129.216,764.55L129.216,773.958C129.216,783.367,129.216,802.183,132.18,817.758C135.143,833.333,141.07,845.667,144.034,851.833L146.997,858" class="edge-thickness-normal edge-pattern-dotted edge-pattern-solid flowchart-link"/><path id="analize_results-cyclic-special-2" marker-end="url(#graph-div_flowchart-v2-pointEnd)" d="M147.045,858L150.009,851.833C152.972,845.667,158.899,833.333,161.862,817.75C164.826,802.167,164.826,783.333,164.826,764.5C164.826,745.667,164.826,726.833,158.274,711.689C151.723,696.544,138.621,685.089,132.069,679.361L125.518,673.633" class="edge-thickness-normal edge-pattern-dotted edge-pattern-solid flowchart-link"/><path id="L_analize_results_end__8" marker-end="url(#graph-div_flowchart-v2-pointEnd)" d="M75.583,671L71.919,677.167C68.255,683.333,60.928,695.667,57.264,707.333C53.6,719,53.6,730,53.6,735.5L53.6,741" class="edge-thickness-normal edge-pattern-solid flowchart-link"/></g><g class="edgeLabels"><g class="edgeLabel"><g class="label" transform="translate(0, 0)"><foreignObject width="0" height="0"><div xmlns="http://www.w3.org/1999/xhtml" style="display:table-cell;white-space:nowrap;line-height:1.5;max-width:200px;text-align:center" class="labelBkg"><span class="edgeLabel"/></div></foreignObject></g></g><g class="edgeLabel"><g class="label" transform="translate(0, 0)"><foreignObject width="0" height="0"><div xmlns="http://www.w3.org/1999/xhtml" style="display:table-cell;white-space:nowrap;line-height:1.5;max-width:200px;text-align:center" class="labelBkg"><span class="edgeLabel"/></div></foreignObject></g></g><g class="edgeLabel"><g class="label" transform="translate(0, 0)"><foreignObject width="0" height="0"><div xmlns="http://www.w3.org/1999/xhtml" style="display:table-cell;white-space:nowrap;line-height:1.5;max-width:200px;text-align:center" class="labelBkg"><span class="edgeLabel"/></div></foreignObject></g></g><g class="edgeLabel"><g class="label" transform="translate(0, 0)"><foreignObject width="0" height="0"><div xmlns="http://www.w3.org/1999/xhtml" style="display:table-cell;white-space:nowrap;line-height:1.5;max-width:200px;text-align:center" class="labelBkg"><span class="edgeLabel"/></div></foreignObject></g></g><g class="edgeLabel"><g class="label" transform="translate(0, 0)"><foreignObject width="0" height="0"><div xmlns="http://www.w3.org/1999/xhtml" style="display:table-cell;white-space:nowrap;line-height:1.5;max-width:200px;text-align:center" class="labelBkg"><span class="edgeLabel"/></div></foreignObject></g></g><g class="edgeLabel"><g class="label" transform="translate(0, 0)"><foreignObject width="0" height="0"><div xmlns="http://www.w3.org/1999/xhtml" style="display:table-cell;white-space:nowrap;line-height:1.5;max-width:200px;text-align:center" class="labelBkg"><span class="edgeLabel"/></div></foreignObject></g></g><g class="edgeLabel"><g class="label" transform="translate(0, 0)"><foreignObject width="0" height="0"><div xmlns="http://www.w3.org/1999/xhtml" style="display:table-cell;white-space:nowrap;line-height:1.5;max-width:200px;text-align:center" class="labelBkg"><span class="edgeLabel"/></div></foreignObject></g></g><g class="edgeLabel"><g class="label" transform="translate(0, 0)"><foreignObject width="0" height="0"><div xmlns="http://www.w3.org/1999/xhtml" style="display:table-cell;white-space:nowrap;line-height:1.5;max-width:200px;text-align:center" class="labelBkg"><span class="edgeLabel"/></div></foreignObject></g></g><g class="edgeLabel"><g class="label" transform="translate(0, 0)"><foreignObject width="0" height="0"><div xmlns="http://www.w3.org/1999/xhtml" style="display:table-cell;white-space:nowrap;line-height:1.5;max-width:200px;text-align:center" class="labelBkg"><span class="edgeLabel"/></div></foreignObject></g></g><g class="edgeLabel"><g class="label" transform="translate(0, 0)"><foreignObject width="0" height="0"><div xmlns="http://www.w3.org/1999/xhtml" style="display:table-cell;white-space:nowrap;line-height:1.5;max-width:200px;text-align:center" class="labelBkg"><span class="edgeLabel"/></div></foreignObject></g></g><g class="edgeLabel"><g class="label" transform="translate(129.21640625037253, 821) translate(-15.609375, -12)"><foreignObject width="31.219" height="24"><div xmlns="http://www.w3.org/1999/xhtml" style="display:table-cell;white-space:nowrap;line-height:1.5;max-width:200px;text-align:center" class="labelBkg"><span class="edgeLabel"><p>True</p></span></div></foreignObject></g></g><g class="edgeLabel"><g class="label" transform="translate(0, 0)"><foreignObject width="0" height="0"><div xmlns="http://www.w3.org/1999/xhtml" style="display:table-cell;white-space:nowrap;line-height:1.5;max-width:200px;text-align:center" class="labelBkg"><span class="edgeLabel"/></div></foreignObject></g></g><g class="edgeLabel"><g class="label" transform="translate(53.59999999962747, 708) translate(-18.36328125, -12)"><foreignObject width="36.727" height="24"><div xmlns="http://www.w3.org/1999/xhtml" style="display:table-cell;white-space:nowrap;line-height:1.5;max-width:200px;text-align:center" class="labelBkg"><span class="edgeLabel"><p>False</p></span></div></foreignObject></g></g></g><g class="nodes"><g id="flowchart-start-907" class="node default" transform="translate(242.3914062511176, 27.5)"><rect width="58.539" height="39" x="-29.27" y="-19.5" class="basic label-container" rx="19.5" ry="19.5"/><g class="label" transform="translate(-16.89453125, -12)"><rect/><foreignObject width="33.789" height="24"><div xmlns="http://www.w3.org/1999/xhtml" style="display:table-cell;white-space:nowrap;line-height:1.5;max-width:200px;text-align:center"><span class="nodeLabel"><p>start</p></span></div></foreignObject></g></g><g id="flowchart-static_test-908" class="node default" transform="translate(242.3914062511176, 124)"><rect width="136.336" height="54" x="-68.168" y="-27" class="basic label-container"/><g class="label" transform="translate(-38.16796875, -12)"><rect/><foreignObject width="76.336" height="24"><div xmlns="http://www.w3.org/1999/xhtml" style="display:table-cell;white-space:nowrap;line-height:1.5;max-width:200px;text-align:center"><span class="nodeLabel"><p>static_test</p></span></div></foreignObject></g></g><g id="flowchart-generate_node_descriptions-910" class="node default" transform="translate(242.3914062511176, 228)"><rect width="262.117" height="54" x="-131.059" y="-27" class="basic label-container"/><g class="label" transform="translate(-101.05859375, -12)"><rect/><foreignObject width="202.117" height="24"><div xmlns="http://www.w3.org/1999/xhtml" style="display:table;white-space:break-spaces;line-height:1.5;max-width:200px;text-align:center;width:200px"><span class="nodeLabel"><p>generate_node_descriptions</p></span></div></foreignObject></g></g><g id="flowchart-generate_testers-912" class="node default" transform="translate(242.3914062511176, 332)"><rect width="181.625" height="54" x="-90.813" y="-27" class="basic label-container"/><g class="label" transform="translate(-60.8125, -12)"><rect/><foreignObject width="121.625" height="24"><div xmlns="http://www.w3.org/1999/xhtml" style="display:table-cell;white-space:nowrap;line-height:1.5;max-width:200px;text-align:center"><span class="nodeLabel"><p>generate_testers</p></span></div></foreignObject></g></g><g id="flowchart-generate_test_cases-914" class="node default" transform="translate(242.3914062511176, 436)"><rect width="206.602" height="54" x="-103.301" y="-27" class="basic label-container"/><g class="label" transform="translate(-73.30078125, -12)"><rect/><foreignObject width="146.602" height="24"><div xmlns="http://www.w3.org/1999/xhtml" style="display:table-cell;white-space:nowrap;line-height:1.5;max-width:200px;text-align:center"><span class="nodeLabel"><p>generate_test_cases</p></span></div></foreignObject></g></g><g id="flowchart-run_test_cases-916" class="node default" transform="translate(91.625, 540)"><rect width="166.383" height="54" x="-83.191" y="-27" class="basic label-container"/><g class="label" transform="translate(-53.19140625, -12)"><rect/><foreignObject width="106.383" height="24"><div xmlns="http://www.w3.org/1999/xhtml" style="display:table-cell;white-space:nowrap;line-height:1.5;max-width:200px;text-align:center"><span class="nodeLabel"><p>run_test_cases</p></span></div></foreignObject></g></g><g id="flowchart-analize_results-920" class="node default" transform="translate(91.625, 644)"><rect width="167.25" height="54" x="-83.625" y="-27" class="basic label-container"/><g class="label" transform="translate(-53.625, -12)"><rect/><foreignObject width="107.25" height="24"><div xmlns="http://www.w3.org/1999/xhtml" style="display:table-cell;white-space:nowrap;line-height:1.5;max-width:200px;text-align:center"><span class="nodeLabel"><p>analize_results</p></span></div></foreignObject></g></g><g id="flowchart-end_-924" class="node default" transform="translate(53.59999999962747, 764.5)"><rect width="51.133" height="39" x="-25.566" y="-19.5" class="basic label-container" rx="19.5" ry="19.5"/><g class="label" transform="translate(-13.19140625, -12)"><rect/><foreignObject width="26.383" height="24"><div xmlns="http://www.w3.org/1999/xhtml" style="display:table-cell;white-space:nowrap;line-height:1.5;max-width:200px;text-align:center"><span class="nodeLabel"><p>end</p></span></div></foreignObject></g></g><g id="generate_test_cases---generate_test_cases---1" class="label edgeLabel" transform="translate(224.86640625074506, 540)"><rect width=".1" height=".1"/><g class="label" transform="translate(0, 0)"><rect/><foreignObject width="0" height="0"><div xmlns="http://www.w3.org/1999/xhtml" style="display:table-cell;white-space:nowrap;line-height:1.5;max-width:10px;text-align:center"><span class="nodeLabel"/></div></foreignObject></g></g><g id="generate_test_cases---generate_test_cases---2" class="label edgeLabel" transform="translate(259.9164062514901, 644)"><rect width=".1" height=".1"/><g class="label" transform="translate(0, 0)"><rect/><foreignObject width="0" height="0"><div xmlns="http://www.w3.org/1999/xhtml" style="display:table-cell;white-space:nowrap;line-height:1.5;max-width:10px;text-align:center"><span class="nodeLabel"/></div></foreignObject></g></g><g id="analize_results---analize_results---1" class="label edgeLabel" transform="translate(129.21640625037253, 764.5)"><rect width=".1" height=".1"/><g class="label" transform="translate(0, 0)"><rect/><foreignObject width="0" height="0"><div xmlns="http://www.w3.org/1999/xhtml" style="display:table-cell;white-space:nowrap;line-height:1.5;max-width:10px;text-align:center"><span class="nodeLabel"/></div></foreignObject></g></g><g id="analize_results---analize_results---2" class="label edgeLabel" transform="translate(147.02109375037253, 858.0500000007451)"><rect width=".1" height=".1"/><g class="label" transform="translate(0, 0)"><rect/><foreignObject width="0" height="0"><div xmlns="http://www.w3.org/1999/xhtml" style="display:table-cell;white-space:nowrap;line-height:1.5;max-width:10px;text-align:center"><span class="nodeLabel"/></div></foreignObject></g></g></g></g></g></svg>