<?xml-stylesheet href="https://cdnjs.cloudflare.com/ajax/libs/font-awesome/6.6.0/css/all.min.css" type="text/css"?><svg xmlns="http://www.w3.org/2000/svg" xmlns:xlink="http://www.w3.org/1999/xlink" style="max-width:100%" id="graph-div" width="100%" height="100%" aria-roledescription="flowchart-v2" class="flowchart" role="graphics-document document" viewBox="0 0 496.756 1115.213"><style>#graph-div{font-family:&quot;trebuchet ms&quot;,verdana,arial,sans-serif;font-size:16px;fill:#333;}#graph-div .error-icon{fill:#552222;}#graph-div .error-text{fill:#552222;stroke:#552222;}#graph-div .edge-thickness-normal{stroke-width:1px;}#graph-div .edge-thickness-thick{stroke-width:3.5px;}#graph-div .edge-pattern-solid{stroke-dasharray:0;}#graph-div .edge-thickness-invisible{stroke-width:0;fill:none;}#graph-div .edge-pattern-dashed{stroke-dasharray:3;}#graph-div .edge-pattern-dotted{stroke-dasharray:2;}#graph-div .marker{fill:#333333;stroke:#333333;}#graph-div .marker.cross{stroke:#333333;}#graph-div svg{font-family:&quot;trebuchet ms&quot;,verdana,arial,sans-serif;font-size:16px;}#graph-div p{margin:0;}#graph-div .label{font-family:&quot;trebuchet ms&quot;,verdana,arial,sans-serif;color:#333;}#graph-div .cluster-label text{fill:#333;}#graph-div .cluster-label span{color:#333;}#graph-div .cluster-label span p{background-color:transparent;}#graph-div .label text,#graph-div span{fill:#333;color:#333;}#graph-div .node rect,#graph-div .node circle,#graph-div .node ellipse,#graph-div .node polygon,#graph-div .node path{fill:#ECECFF;stroke:#9370DB;stroke-width:1px;}#graph-div .rough-node .label text,#graph-div .node .label text{text-anchor:middle;}#graph-div .node .katex path{fill:#000;stroke:#000;stroke-width:1px;}#graph-div .node .label{text-align:center;}#graph-div .node.clickable{cursor:pointer;}#graph-div .arrowheadPath{fill:#333333;}#graph-div .edgePath .path{stroke:#333333;stroke-width:2.0px;}#graph-div .flowchart-link{stroke:#333333;fill:none;}#graph-div .edgeLabel{background-color:rgba(232,232,232, 0.8);text-align:center;}#graph-div .edgeLabel p{background-color:rgba(232,232,232, 0.8);}#graph-div .edgeLabel rect{opacity:0.5;background-color:rgba(232,232,232, 0.8);fill:rgba(232,232,232, 0.8);}#graph-div .labelBkg{background-color:rgba(232, 232, 232, 0.5);}#graph-div .cluster rect{fill:#ffffde;stroke:#aaaa33;stroke-width:1px;}#graph-div .cluster text{fill:#333;}#graph-div .cluster span{color:#333;}#graph-div div.mermaidTooltip{position:absolute;text-align:center;max-width:200px;padding:2px;font-family:&quot;trebuchet ms&quot;,verdana,arial,sans-serif;font-size:12px;background:hsl(80, 100%, 96.2745098039%);border:1px solid #aaaa33;border-radius:2px;pointer-events:none;z-index:100;}#graph-div .flowchartTitleText{text-anchor:middle;font-size:18px;fill:#333;}#graph-div :root{--mermaid-font-family:&quot;trebuchet ms&quot;,verdana,arial,sans-serif;}#graph-div .input&gt;*{fill:#FFA07A!important;stroke:#333!important;stroke-width:2px!important;color:#000!important;}#graph-div .input span{fill:#FFA07A!important;stroke:#333!important;stroke-width:2px!important;color:#000!important;}#graph-div .input tspan{fill:#000!important;}#graph-div .output&gt;*{fill:#98FB98!important;stroke:#333!important;stroke-width:2px!important;color:#000!important;}#graph-div .output span{fill:#98FB98!important;stroke:#333!important;stroke-width:2px!important;color:#000!important;}#graph-div .output tspan{fill:#000!important;}#graph-div .ai&gt;*{fill:#FF69B4!important;stroke:#333!important;stroke-width:2px!important;color:#fff!important;}#graph-div .ai span{fill:#FF69B4!important;stroke:#333!important;stroke-width:2px!important;color:#fff!important;}#graph-div .ai tspan{fill:#fff!important;}#graph-div .process&gt;*{fill:#87CEFA!important;stroke:#333!important;stroke-width:2px!important;color:#000!important;}#graph-div .process span{fill:#87CEFA!important;stroke:#333!important;stroke-width:2px!important;color:#000!important;}#graph-div .process tspan{fill:#000!important;}</style><g><marker id="graph-div_flowchart-v2-pointEnd" class="marker flowchart-v2" markerHeight="8" markerUnits="userSpaceOnUse" markerWidth="8" orient="auto" refX="5" refY="5" viewBox="0 0 10 10"><path style="stroke-width:1;stroke-dasharray:1,0" d="M 0 0 L 10 5 L 0 10 z" class="arrowMarkerPath"/></marker><marker id="graph-div_flowchart-v2-pointStart" class="marker flowchart-v2" markerHeight="8" markerUnits="userSpaceOnUse" markerWidth="8" orient="auto" refX="4.5" refY="5" viewBox="0 0 10 10"><path style="stroke-width:1;stroke-dasharray:1,0" d="M 0 5 L 10 10 L 10 0 z" class="arrowMarkerPath"/></marker><marker id="graph-div_flowchart-v2-circleEnd" class="marker flowchart-v2" markerHeight="11" markerUnits="userSpaceOnUse" markerWidth="11" orient="auto" refX="11" refY="5" viewBox="0 0 10 10"><circle style="stroke-width:1;stroke-dasharray:1,0" cx="5" cy="5" r="5" class="arrowMarkerPath"/></marker><marker id="graph-div_flowchart-v2-circleStart" class="marker flowchart-v2" markerHeight="11" markerUnits="userSpaceOnUse" markerWidth="11" orient="auto" refX="-1" refY="5" viewBox="0 0 10 10"><circle style="stroke-width:1;stroke-dasharray:1,0" cx="5" cy="5" r="5" class="arrowMarkerPath"/></marker><marker id="graph-div_flowchart-v2-crossEnd" class="marker cross flowchart-v2" markerHeight="11" markerUnits="userSpaceOnUse" markerWidth="11" orient="auto" refX="12" refY="5.2" viewBox="0 0 11 11"><path style="stroke-width:2;stroke-dasharray:1,0" d="M 1,1 l 9,9 M 10,1 l -9,9" class="arrowMarkerPath"/></marker><marker id="graph-div_flowchart-v2-crossStart" class="marker cross flowchart-v2" markerHeight="11" markerUnits="userSpaceOnUse" markerWidth="11" orient="auto" refX="-1" refY="5.2" viewBox="0 0 11 11"><path style="stroke-width:2;stroke-dasharray:1,0" d="M 1,1 l 9,9 M 10,1 l -9,9" class="arrowMarkerPath"/></marker><g class="root"><g class="edgePaths"><path id="L_A_B_0" marker-end="url(#graph-div_flowchart-v2-pointEnd)" d="M301.9,125.787L301.9,129.954C301.9,134.121,301.9,142.454,301.9,148.704C301.9,154.954,301.9,159.121,301.9,162.621C301.9,166.121,301.9,168.954,301.9,170.371L301.9,171.787" class="edge-thickness-normal edge-pattern-solid flowchart-link"/><path id="L_B_B1_1" marker-end="url(#graph-div_flowchart-v2-pointEnd)" d="M301.9,229.787L301.9,233.954C301.9,238.121,301.9,246.454,301.9,252.704C301.9,258.954,301.9,263.121,301.9,266.621C301.9,270.121,301.9,272.954,301.9,274.371L301.9,275.787" class="edge-thickness-normal edge-pattern-solid flowchart-link"/><path id="L_B1_B2_2" marker-end="url(#graph-div_flowchart-v2-pointEnd)" d="M269.125,333.787L264.067,337.954C259.009,342.121,248.894,350.454,243.836,356.704C238.778,362.954,238.778,367.121,238.778,370.621C238.778,374.121,238.778,376.954,238.778,378.371L238.778,379.787" class="edge-thickness-normal edge-pattern-solid flowchart-link"/><path id="L_B2_B3_3" marker-end="url(#graph-div_flowchart-v2-pointEnd)" d="M206.328,437.787L201.32,441.954C196.312,446.121,186.297,454.454,181.289,460.704C176.281,466.954,176.281,471.121,176.281,474.621C176.281,478.121,176.281,480.954,176.281,482.371L176.281,483.787" class="edge-thickness-normal edge-pattern-solid flowchart-link"/><path id="L_B3_D_4" marker-end="url(#graph-div_flowchart-v2-pointEnd)" d="M146.909,541.787L142.376,545.954C137.844,550.121,128.778,558.454,124.245,564.704C119.713,570.954,119.713,575.121,119.713,578.621C119.713,582.121,119.713,584.954,119.713,586.371L119.713,587.787" class="edge-thickness-normal edge-pattern-solid flowchart-link"/><path id="L_D_E_5" marker-end="url(#graph-div_flowchart-v2-pointEnd)" d="M114.52,645.787L113.719,649.954C112.918,654.121,111.315,662.454,110.514,668.704C109.713,674.954,109.713,679.121,109.713,682.621C109.713,686.121,109.713,688.954,109.713,690.371L109.713,691.787" class="edge-thickness-normal edge-pattern-solid flowchart-link"/><path id="L_E_F_6" marker-end="url(#graph-div_flowchart-v2-pointEnd)" d="M109.713,749.787L109.713,753.954C109.713,758.121,109.713,766.454,109.713,772.704C109.713,778.954,109.713,783.121,109.713,786.621C109.713,790.121,109.713,792.954,109.713,794.371L109.713,795.787" class="edge-thickness-normal edge-pattern-solid flowchart-link"/><path id="L_F_G_7" marker-end="url(#graph-div_flowchart-v2-pointEnd)" d="M109.713,1003.213L109.713,1007.379C109.713,1011.546,109.713,1019.879,109.713,1026.129C109.713,1032.379,109.713,1036.546,109.713,1040.046C109.713,1043.546,109.713,1046.379,109.713,1047.796L109.713,1049.213" class="edge-thickness-normal edge-pattern-dotted edge-pattern-solid flowchart-link"/><path id="L_B1_C_8" marker-end="url(#graph-div_flowchart-v2-pointEnd)" marker-start="url(#graph-div_flowchart-v2-pointStart)" d="M374.82,335.242L384.877,339.166C394.934,343.09,415.048,350.939,425.105,363.53C435.163,376.121,435.163,393.454,435.163,410.787C435.163,428.121,435.163,445.454,435.163,462.787C435.163,480.121,435.163,497.454,435.163,514.787C435.163,532.121,435.163,549.454,435.163,566.787C435.163,584.121,435.163,601.454,435.163,618.787C435.163,636.121,435.163,653.454,433.56,664.204C431.957,674.954,428.752,679.121,425.954,682.759C423.155,686.397,420.763,689.507,419.567,691.062L418.371,692.617" class="edge-thickness-normal edge-pattern-solid flowchart-link"/><path id="L_B2_C_9" marker-end="url(#graph-div_flowchart-v2-pointEnd)" marker-start="url(#graph-div_flowchart-v2-pointStart)" d="M306.465,439.342L315.728,443.25C324.99,447.157,343.516,454.972,352.778,467.547C362.041,480.121,362.041,497.454,362.041,514.787C362.041,532.121,362.041,549.454,362.041,566.787C362.041,584.121,362.041,601.454,362.041,618.787C362.041,636.121,362.041,653.454,363.368,664.204C364.695,674.954,367.349,679.121,369.644,682.725C371.94,686.33,373.878,689.372,374.847,690.893L375.816,692.414" class="edge-thickness-normal edge-pattern-solid flowchart-link"/><path id="L_B3_C_10" marker-end="url(#graph-div_flowchart-v2-pointEnd)" marker-start="url(#graph-div_flowchart-v2-pointStart)" d="M238.726,543.456L247.195,547.345C255.665,551.233,272.604,559.01,281.074,571.566C289.544,584.121,289.544,601.454,289.544,618.787C289.544,636.121,289.544,653.454,293.775,664.204C298.007,674.954,306.47,679.121,314.335,682.993C322.2,686.865,329.467,690.443,333.1,692.232L336.733,694.021" class="edge-thickness-normal edge-pattern-solid flowchart-link"/><path id="L_D_C_11" marker-end="url(#graph-div_flowchart-v2-pointEnd)" marker-start="url(#graph-div_flowchart-v2-pointStart)" d="M176.902,647.587L184.581,651.453C192.26,655.32,207.617,663.054,222.195,669.004C236.772,674.954,250.569,679.121,263.728,683.095C276.887,687.069,289.408,690.85,295.668,692.74L301.928,694.631" class="edge-thickness-normal edge-pattern-solid flowchart-link"/></g><g class="edgeLabels"><g class="edgeLabel"><g class="label" transform="translate(0, 0)"><foreignObject width="0" height="0"><div xmlns="http://www.w3.org/1999/xhtml" style="display:table-cell;white-space:nowrap;line-height:1.5;max-width:200px;text-align:center" class="labelBkg"><span class="edgeLabel"/></div></foreignObject></g></g><g class="edgeLabel"><g class="label" transform="translate(0, 0)"><foreignObject width="0" height="0"><div xmlns="http://www.w3.org/1999/xhtml" style="display:table-cell;white-space:nowrap;line-height:1.5;max-width:200px;text-align:center" class="labelBkg"><span class="edgeLabel"/></div></foreignObject></g></g><g class="edgeLabel"><g class="label" transform="translate(0, 0)"><foreignObject width="0" height="0"><div xmlns="http://www.w3.org/1999/xhtml" style="display:table-cell;white-space:nowrap;line-height:1.5;max-width:200px;text-align:center" class="labelBkg"><span class="edgeLabel"/></div></foreignObject></g></g><g class="edgeLabel"><g class="label" transform="translate(0, 0)"><foreignObject width="0" height="0"><div xmlns="http://www.w3.org/1999/xhtml" style="display:table-cell;white-space:nowrap;line-height:1.5;max-width:200px;text-align:center" class="labelBkg"><span class="edgeLabel"/></div></foreignObject></g></g><g class="edgeLabel"><g class="label" transform="translate(0, 0)"><foreignObject width="0" height="0"><div xmlns="http://www.w3.org/1999/xhtml" style="display:table-cell;white-space:nowrap;line-height:1.5;max-width:200px;text-align:center" class="labelBkg"><span class="edgeLabel"/></div></foreignObject></g></g><g class="edgeLabel"><g class="label" transform="translate(0, 0)"><foreignObject width="0" height="0"><div xmlns="http://www.w3.org/1999/xhtml" style="display:table-cell;white-space:nowrap;line-height:1.5;max-width:200px;text-align:center" class="labelBkg"><span class="edgeLabel"/></div></foreignObject></g></g><g class="edgeLabel"><g class="label" transform="translate(0, 0)"><foreignObject width="0" height="0"><div xmlns="http://www.w3.org/1999/xhtml" style="display:table-cell;white-space:nowrap;line-height:1.5;max-width:200px;text-align:center" class="labelBkg"><span class="edgeLabel"/></div></foreignObject></g></g><g class="edgeLabel"><g class="label" transform="translate(0, 0)"><foreignObject width="0" height="0"><div xmlns="http://www.w3.org/1999/xhtml" style="display:table-cell;white-space:nowrap;line-height:1.5;max-width:200px;text-align:center" class="labelBkg"><span class="edgeLabel"/></div></foreignObject></g></g><g class="edgeLabel"><g class="label" transform="translate(0, 0)"><foreignObject width="0" height="0"><div xmlns="http://www.w3.org/1999/xhtml" style="display:table-cell;white-space:nowrap;line-height:1.5;max-width:200px;text-align:center" class="labelBkg"><span class="edgeLabel"/></div></foreignObject></g></g><g class="edgeLabel"><g class="label" transform="translate(0, 0)"><foreignObject width="0" height="0"><div xmlns="http://www.w3.org/1999/xhtml" style="display:table-cell;white-space:nowrap;line-height:1.5;max-width:200px;text-align:center" class="labelBkg"><span class="edgeLabel"/></div></foreignObject></g></g><g class="edgeLabel"><g class="label" transform="translate(0, 0)"><foreignObject width="0" height="0"><div xmlns="http://www.w3.org/1999/xhtml" style="display:table-cell;white-space:nowrap;line-height:1.5;max-width:200px;text-align:center" class="labelBkg"><span class="edgeLabel"/></div></foreignObject></g></g><g class="edgeLabel"><g class="label" transform="translate(0, 0)"><foreignObject width="0" height="0"><div xmlns="http://www.w3.org/1999/xhtml" style="display:table-cell;white-space:nowrap;line-height:1.5;max-width:200px;text-align:center" class="labelBkg"><span class="edgeLabel"/></div></foreignObject></g></g></g><g class="nodes"><g id="flowchart-A-193" class="node default input" transform="translate(301.9000015258789, 66.89374923706055)"><circle cx="0" cy="0" r="58.894" class="basic label-container" style="fill:#ffa07a!important;stroke:#333!important;stroke-width:2px!important"/><g style="color:#000!important" class="label" transform="translate(-51.39374923706055, -12)"><rect/><foreignObject width="102.787" height="24"><div xmlns="http://www.w3.org/1999/xhtml" style="color:#000!important;display:table-cell;white-space:nowrap;line-height:1.5;max-width:200px;text-align:center"><span class="nodeLabel" style="color:#000!important"><p>Musician Input</p></span></div></foreignObject></g></g><g id="flowchart-B-194" class="node default ai" transform="translate(301.9000015258789, 202.7874984741211)"><rect width="149.075" height="54" x="-74.538" y="-27" class="basic label-container" data-et="node" data-id="abc" style="fill:#ff69b4!important;stroke:#333!important;stroke-width:2px!important"/><g style="color:#fff!important" class="label" transform="translate(-44.53750228881836, -12)"><rect/><foreignObject width="89.075" height="24"><div xmlns="http://www.w3.org/1999/xhtml" style="color:#fff!important;display:table-cell;white-space:nowrap;line-height:1.5;max-width:200px;text-align:center"><span class="nodeLabel" style="color:#fff!important"><p>AI Composer</p></span></div></foreignObject></g></g><g id="flowchart-B1-196" class="node default" transform="translate(301.9000015258789, 306.7874984741211)"><rect width="187.8" height="54" x="-93.9" y="-27" class="basic label-container" data-et="node" data-id="abc"/><g class="label" transform="translate(-63.900001525878906, -12)"><rect/><foreignObject width="127.8" height="24"><div xmlns="http://www.w3.org/1999/xhtml" style="display:table-cell;white-space:nowrap;line-height:1.5;max-width:200px;text-align:center"><span class="nodeLabel"><p>Melody Generator</p></span></div></foreignObject></g></g><g id="flowchart-B2-198" class="node default" transform="translate(238.77812576293945, 410.7874984741211)"><rect width="182.488" height="54" x="-91.244" y="-27" class="basic label-container" data-et="node" data-id="abc"/><g class="label" transform="translate(-61.243751525878906, -12)"><rect/><foreignObject width="122.488" height="24"><div xmlns="http://www.w3.org/1999/xhtml" style="display:table-cell;white-space:nowrap;line-height:1.5;max-width:200px;text-align:center"><span class="nodeLabel"><p>Harmony Creator</p></span></div></foreignObject></g></g><g id="flowchart-B3-200" class="node default" transform="translate(176.28125, 514.7874984741211)"><rect width="179.988" height="54" x="-89.994" y="-27" class="basic label-container" data-et="node" data-id="abc"/><g class="label" transform="translate(-59.993751525878906, -12)"><rect/><foreignObject width="119.988" height="24"><div xmlns="http://www.w3.org/1999/xhtml" style="display:table-cell;white-space:nowrap;line-height:1.5;max-width:200px;text-align:center"><span class="nodeLabel"><p>Rhythm Analyzer</p></span></div></foreignObject></g></g><g id="flowchart-D-202" class="node default process" transform="translate(119.7125015258789, 618.7874984741211)"><rect width="156.275" height="54" x="-78.138" y="-27" class="basic label-container" data-et="node" data-id="abc" style="fill:#87cefa!important;stroke:#333!important;stroke-width:2px!important"/><g style="color:#000!important" class="label" transform="translate(-48.13750076293945, -12)"><rect/><foreignObject width="96.275" height="24"><div xmlns="http://www.w3.org/1999/xhtml" style="color:#000!important;display:table-cell;white-space:nowrap;line-height:1.5;max-width:200px;text-align:center"><span class="nodeLabel" style="color:#000!important"><p>Style Adapter</p></span></div></foreignObject></g></g><g id="flowchart-E-204" class="node default process" transform="translate(109.7125015258789, 722.7874984741211)"><rect width="165.863" height="54" x="-82.931" y="-27" class="basic label-container" data-et="node" data-id="abc" style="fill:#87cefa!important;stroke:#333!important;stroke-width:2px!important"/><g style="color:#000!important" class="label" transform="translate(-52.931251525878906, -12)"><rect/><foreignObject width="105.863" height="24"><div xmlns="http://www.w3.org/1999/xhtml" style="color:#000!important;display:table-cell;white-space:nowrap;line-height:1.5;max-width:200px;text-align:center"><span class="nodeLabel" style="color:#000!important"><p>MIDI Converter</p></span></div></foreignObject></g></g><g id="flowchart-F-206" class="node default output" transform="translate(109.7125015258789, 901.5)"><circle cx="0" cy="0" r="101.713" class="basic label-container" style="fill:#98fb98!important;stroke:#333!important;stroke-width:2px!important"/><g style="color:#000!important" class="label" transform="translate(-94.2125015258789, -12)"><rect/><foreignObject width="188.425" height="24"><div xmlns="http://www.w3.org/1999/xhtml" style="color:#000!important;display:table-cell;white-space:nowrap;line-height:1.5;max-width:200px;text-align:center"><span class="nodeLabel" style="color:#000!important"><p>AI-Generated Composition</p></span></div></foreignObject></g></g><g id="flowchart-G-208" class="node default process" transform="translate(109.7125015258789, 1080.212501525879)"><rect width="158.15" height="54" x="-79.075" y="-27" class="basic label-container" data-et="node" data-id="abc" style="fill:#87cefa!important;stroke:#333!important;stroke-width:2px!important"/><g style="color:#000!important" class="label" transform="translate(-49.07500076293945, -12)"><rect/><foreignObject width="98.15" height="24"><div xmlns="http://www.w3.org/1999/xhtml" style="color:#000!important;display:table-cell;white-space:nowrap;line-height:1.5;max-width:200px;text-align:center"><span class="nodeLabel" style="color:#000!important"><p>MIDI Playback</p></span></div></foreignObject></g></g><g id="flowchart-C-213" class="node default ai" transform="translate(395.16250228881836, 722.7874984741211)"><rect width="187.188" height="54" x="-93.594" y="-27" class="basic label-container" data-et="node" data-id="abc" style="fill:#ff69b4!important;stroke:#333!important;stroke-width:2px!important"/><g style="color:#fff!important" class="label" transform="translate(-63.59375, -12)"><rect/><foreignObject width="127.188" height="24"><div xmlns="http://www.w3.org/1999/xhtml" style="color:#fff!important;display:table-cell;white-space:nowrap;line-height:1.5;max-width:200px;text-align:center"><span class="nodeLabel" style="color:#fff!important"><p>LLM - ChatOpenAI</p></span></div></foreignObject></g></g></g></g></g></svg>